<?xml version="1.0" encoding="utf-8"?>
<!-- Generator: Adobe Illustrator 19.0.0, SVG Export Plug-In . SVG Version: 6.00 Build 0)  -->
<svg version="1.1" id="Layer_1" xmlns="http://www.w3.org/2000/svg" xmlns:xlink="http://www.w3.org/1999/xlink" x="0px" y="0px"
	 viewBox="-412 290.2 15.9 16.1" style="enable-background:new -412 290.2 15.9 16.1;" xml:space="preserve">
<style type="text/css">
	.st0{fill:#418888;}
	.st1{fill:#FEFEFE;}
	.st2{fill:#F9FBFB;}
	.st3{fill:#F2F6F6;}
	.st4{fill:#D3E3E3;}
	.st5{fill:#F4F8F8;}
	.st6{fill:#F8FBFB;}
	.st7{fill:#ECF3F3;}
	.st8{fill:#E1ECEC;}
	.st9{fill:#EFF5F5;}
	.st10{fill:#E7F0F0;}
	.st11{fill:#ECF2F2;}
	.st12{fill:#F0F5F5;}
	.st13{fill:#AFCDCD;}
	.st14{fill:#5B9999;}
	.st15{fill:#F6FAFA;}
	.st16{fill:#448B8B;}
	.st17{fill:#4B8F8F;}
	.st18{fill:#DFEBEB;}
	.st19{fill:#478C8C;}
	.st20{fill:#579696;}
	.st21{fill:#5F9B9B;}
</style>
<g>
	<path class="st0" d="M-403.9,305.9c-1.3,0-2.5-0.3-3.6-0.9c-0.8-0.5-1.5-1.1-2.2-1.8c-0.5-0.6-0.9-1.2-1.2-1.9
		c-0.8-1.8-0.8-3.7-0.2-5.6c0.3-0.7,0.6-1.4,1.1-2c0.6-0.8,1.3-1.4,2.1-1.9c1.7-1,3.5-1.3,5.5-0.9c1.2,0.3,2.3,0.8,3.3,1.6
		c0.4,0.3,0.7,0.7,1,1.1c0.5,0.6,0.9,1.3,1.2,2.1c0.7,1.7,0.7,3.4,0.1,5.1c-0.2,0.7-0.6,1.4-1,2.1c-1.2,1.6-2.8,2.6-4.7,3
		C-402.9,305.8-403.4,305.9-403.9,305.9z"/>
	<path class="st1" d="M-407.3,292.7c-0.2,0-0.4-0.2-0.6-0.1c0.1-0.2,0.3-0.2,0.4-0.3c1.2-0.8,2.5-1.1,3.9-1c1.2,0,2.4,0.4,3.5,1.1
		c0.2,0.2,0.5,0.3,0.7,0.5c0.2,0.1,0.2,0.2-0.1,0.3c-0.1,0-0.2,0.1-0.3,0.1c-0.1,0.1-0.1,0.2,0,0.3c0.1,0,0.1,0.1,0.1,0.1
		c0,0.1,0.1,0.1,0.2,0.1c0,0,0.1-0.1,0.1,0c0,0.1,0.1,0.2,0,0.2c0,0.1-0.1,0-0.2,0c-0.2,0-0.4,0-0.5,0.2c-0.1,0.1-0.2,0.2-0.3,0.2
		c-0.2,0-0.3,0.2-0.1,0.4c0.1,0.1,0,0.1,0,0.1c0,0.1-0.1,0.1-0.1,0c-0.1,0-0.2,0-0.4,0c-0.2,0-0.3,0.1-0.2,0.3c0,0.2,0,0.4,0.3,0.4
		c0.2,0,0.5,0.1,0.6-0.3c0.1-0.2,0.2-0.4,0.5-0.4c0.1,0,0.1-0.1,0.2-0.1c0.1,0.2,0.4,0.3,0.6,0.5c-0.1,0.1-0.2,0-0.3,0.1
		c0.1,0.2,0.2,0.1,0.3,0.1c0.2,0,0.1-0.2,0.1-0.3c0-0.1-0.1-0.1-0.2-0.2c-0.1-0.1-0.3-0.1-0.3-0.3c0,0,0-0.1,0-0.1
		c0.2,0,0.3,0,0.4,0.1c0.1,0.1,0.2,0.2,0.2,0.4c0,0.1,0.2,0.2,0.2,0.3c0.1-0.1,0.1-0.2,0.1-0.3c0-0.1,0.1-0.1,0.1-0.1
		c0.1,0,0.1,0.1,0.1,0.1c0,0.3,0.2,0.3,0.4,0.3c0.2,0,0.4,0.4,0.3,0.5c0,0,0,0.1-0.1,0c-0.2,0-0.5,0.1-0.7-0.1
		c-0.1-0.1-0.2-0.1-0.4-0.1c0,0-0.1,0-0.1,0.1c0,0.2-0.1,0.1-0.2,0.1c-0.1-0.1-0.3-0.1-0.4-0.1c-0.2,0-0.2-0.1-0.2-0.3
		c0-0.1,0-0.2-0.2-0.2c-0.3,0.1-0.6,0-0.8,0.2c-0.1,0.1-0.2,0-0.3,0c-0.2,0-0.4,0.1-0.6,0.2c-0.1,0-0.1,0.1-0.1,0.2
		c0,0.2,0,0.3-0.2,0.4c-0.2,0.1-0.3,0.2-0.4,0.3c-0.2,0.1-0.1,0.3,0,0.3c0.1,0.1,0.1,0.1,0.1,0.2c-0.2,0.4-0.1,0.6,0.1,0.9
		c0.1,0.1,0.2,0.2,0.3,0.4c0.1,0.1,0.2,0.2,0.3,0.1c0.3-0.1,0.5,0,0.8-0.1c0.1-0.1,0.3-0.1,0.4,0.1c0.1,0.1,0.1,0.1,0.2,0.1
		c0.2,0,0.3,0.1,0.3,0.3c-0.1,0.3,0.1,0.6,0.3,0.8c0.2,0.3,0.2,0.5,0,0.7c-0.1,0.2-0.1,0.3,0.1,0.5c0.1,0.1,0.1,0.2,0.1,0.4
		c0,0.2,0,0.3,0.2,0.4c0.1,0.1,0.2,0.3,0.1,0.4c0,0.1,0,0.2,0.2,0.2c-0.5,0.5-0.9,1-1.4,1.3c-0.6,0.4-1.3,0.8-2,1
		c-1.5,0.4-3,0.4-4.4-0.2c-0.9-0.3-1.6-0.8-2.3-1.4c-0.4-0.4-0.7-0.8-1-1.2c-0.8-1.1-1.1-2.3-1.2-3.6c0-1,0.1-1.9,0.5-2.8
		c0,0,0-0.1,0.1-0.1c0,0.2,0,0.3,0.2,0.4c0.1,0,0.1,0.2,0.1,0.3c0,0.3,0.1,0.5,0.3,0.7c0.1,0.1,0.2,0.1,0.3,0.1c0.1-0.1,0-0.2,0-0.3
		c-0.1-0.2-0.2-0.3-0.2-0.6c0,0,0-0.1,0.1-0.1c0.1,0,0.1,0,0.1,0.1c0,0.3,0.2,0.6,0.4,0.8c0,0,0,0.1,0,0.1c0,0.4,0.1,0.5,0.4,0.6
		c0.1,0,0.3,0.1,0.5,0c0,0,0.2,0,0.2,0.1c0,0.1,0.1,0.1,0.1,0.1c0.3,0,0.5,0.2,0.6,0.4c0.1,0.2,0.3,0.2,0.5,0.2c0.1,0,0.2,0,0.2,0.1
		c0,0.1,0.1,0.3,0,0.4c-0.4,0.2-0.2,0.5-0.3,0.8c0,0,0,0.1,0.1,0.1c0.2,0.3,0.4,0.4,0.5,0.7c0,0.1,0.1,0.1,0.1,0.1
		c0.1,0,0.2,0.1,0.2,0.1c0.2,0.1,0.4,0.3,0.3,0.6c0,0.2,0,0.4,0,0.5c0,0.1,0,0.2,0.1,0.3c0.1,0,0,0.2,0,0.2c-0.1,0.2,0,0.4,0.1,0.5
		c0.1,0.1,0.1,0.1,0.1,0.2c-0.1,0.5,0.1,0.8,0.4,1.1c0.2,0.2,0.3,0.3,0.6,0.3c0.1,0,0.1,0,0.1-0.1c0-0.1,0-0.1-0.1-0.1
		c-0.2-0.1-0.2-0.2-0.1-0.5c0-0.1,0-0.2-0.1-0.2c-0.1,0-0.2-0.1-0.1-0.2c0.1-0.1,0.1-0.2,0-0.2c0,0-0.1,0-0.1-0.1c0,0,0-0.1,0.1-0.1
		c0.1,0,0.3-0.1,0.4-0.1c0.4-0.2,0.5-0.6,0.8-0.9c0.1-0.1,0-0.2,0-0.3c0-0.3,0-0.4,0.3-0.4c0.3,0,0.5-0.1,0.5-0.5
		c0-0.3,0.1-0.7,0.3-0.9c0.1-0.1,0.1-0.3-0.1-0.3c0,0-0.1,0-0.1-0.1c-0.1-0.3-0.3-0.3-0.5-0.2c-0.1,0-0.3,0-0.4,0
		c-0.2-0.1-0.4-0.1-0.4-0.5c0-0.2-0.1-0.4-0.4-0.3c-0.2,0-0.3,0-0.4-0.2c-0.1-0.2-0.2-0.3-0.4-0.2c-0.1,0.1-0.3,0.1-0.5-0.1
		c-0.1-0.2-0.4-0.2-0.6,0c-0.2,0.3-0.4,0.3-0.7,0.2c0,0-0.1,0-0.1-0.1c0,0,0-0.1,0-0.1c0-0.4,0-0.4-0.4-0.5c0,0,0,0,0,0
		c0-0.1,0.2-0.3,0.1-0.4c-0.1-0.1-0.2,0.1-0.3,0.1c-0.1,0.1-0.2,0.2-0.4,0.1c-0.2,0-0.3-0.2-0.3-0.3c0-0.4,0.4-0.8,0.7-0.8
		c0.1,0,0.3,0,0.5,0c0.1,0,0.3-0.1,0.3,0.2c0,0.1,0.1,0.1,0.2,0.1c0,0,0,0,0,0c-0.1-0.3,0.1-0.5,0.3-0.6c0.2-0.1,0.3-0.2,0.4-0.4
		c0.1-0.2,0.3-0.5,0.6-0.6c0.2,0,0.2-0.2,0.3-0.3c0.1-0.1,0.2-0.2,0.3-0.1c0,0,0.1-0.1,0.1-0.1c0,0,0,0,0-0.1c-0.1,0-0.1,0-0.2-0.1
		c0,0,0-0.1,0-0.1c0.1,0,0.2,0,0.2,0c0.1,0.2,0.3,0.1,0.4,0c0,0,0.1-0.1,0.1,0c0,0,0,0.1,0,0.1c-0.1,0.2,0,0.2,0.1,0.2
		c0.1,0,0.1,0,0.2,0.1c0,0,0.1,0,0.1,0c0-0.1,0-0.1,0-0.1c0,0-0.1,0-0.1-0.1c0,0-0.1,0-0.1-0.1c0-0.1,0.1-0.1,0.1-0.1
		c0.2-0.1,0.2-0.2,0.1-0.3c-0.2-0.1-0.2-0.3-0.2-0.6c-0.1,0.1-0.2,0.1-0.4,0.2c-0.1,0-0.2,0-0.2-0.1c0-0.3-0.2-0.2-0.4-0.2
		c-0.1,0-0.2,0-0.3,0.2c0,0.1,0,0.1,0,0.2c0,0.2-0.1,0.3-0.2,0.3c-0.1,0-0.2,0.1-0.3,0.2c0,0.1-0.1,0.2-0.2,0.1
		c-0.1,0-0.1-0.1,0-0.2c0-0.2-0.1-0.2-0.2-0.2c-0.1,0-0.2,0-0.2-0.1c-0.1-0.1-0.1-0.3,0-0.4c0.2-0.1,0.4-0.3,0.6-0.3
		c0.1,0,0.1-0.1,0.2,0.1c0,0.1,0.1,0.1,0.2,0.1c0.1-0.1,0.2,0,0.2-0.2c0,0,0-0.1,0-0.1c0,0,0.1,0,0.1,0c0.3-0.1,0.5-0.3,0.8-0.2
		c0,0,0.1,0.1,0.1,0.1c-0.1,0.1-0.3,0.1-0.5,0.3c0.2,0.1,0.4,0.2,0.5,0.1c0.2-0.1,0.3-0.2,0.5-0.3c0,0,0-0.1,0-0.1
		c-0.2,0-0.1-0.3-0.3-0.4c-0.3-0.1-0.5-0.3-0.9-0.2c-0.2,0-0.4,0.1-0.3,0.3c0,0,0,0.1,0,0.1c-0.1,0-0.1,0-0.2,0c0,0-0.1-0.1,0-0.2
		c0-0.1,0.1-0.1,0.2-0.2c-0.2-0.1-0.3-0.1-0.4-0.1c-0.1,0-0.2,0-0.2,0.1c-0.1,0.1,0.1,0.1,0.1,0.1c0.1,0.1,0,0.2,0,0.2
		c-0.2,0-0.4,0.2-0.6,0.2c-0.1,0-0.1,0-0.1-0.1c0-0.1,0.1-0.1,0.1-0.1c0.1,0,0.2-0.1,0.3-0.2c0,0,0.1-0.1,0-0.1c0,0-0.1,0-0.1,0
		c-0.3,0.2-0.3,0.2-0.6-0.1c-0.2-0.1-0.3-0.1-0.5,0c-0.1,0-0.2,0.1-0.3,0.2c0.1,0.1,0.3-0.1,0.3,0.2
		C-407.1,292.7-407.2,292.7-407.3,292.7z"/>
	<path class="st2" d="M-398.8,293.5c0.1,0,0.1,0.1,0.2,0.2c0,0.1,0.1,0.1,0.1,0.2c0,0.1-0.1,0.1-0.2,0.1c0,0-0.1,0-0.1,0
		c-0.1,0-0.2,0.1-0.3-0.1c0-0.1,0.1-0.1,0.2-0.2C-398.7,293.7-398.9,293.6-398.8,293.5z"/>
	<path class="st3" d="M-406.6,294.7c-0.1,0-0.3,0.1-0.3-0.1c0-0.1,0.2-0.1,0.3-0.1c0,0,0.1,0,0.1,0c0.1,0,0.2,0.1,0.2,0.2
		c0,0.1-0.1,0.1-0.2,0.1C-406.6,294.7-406.6,294.7-406.6,294.7z"/>
	<path class="st4" d="M-407.3,292.7c0.1,0,0.1,0,0.2-0.1c0.1,0.1,0.2,0,0.3,0.1c0.1,0,0.1,0.1,0.1,0.1c0,0.1-0.1,0-0.1,0
		C-407,292.9-407.2,292.8-407.3,292.7z"/>
	<path class="st5" d="M-406.6,294.8c0,0.1-0.1,0.2-0.2,0.3c0,0-0.1,0.1-0.1,0c-0.1,0-0.1-0.1,0-0.1
		C-406.9,294.9-406.8,294.7-406.6,294.8z"/>
	<path class="st6" d="M-407.8,293.1c-0.1,0-0.2,0-0.2-0.1c0-0.1,0.2-0.1,0.3-0.1c0,0,0.1,0,0.1,0.1
		C-407.6,293.1-407.7,293-407.8,293.1z"/>
	<path class="st7" d="M-407.2,294.3c-0.1,0-0.1-0.1-0.1-0.2c0-0.1,0.1-0.1,0.2-0.1c0.1,0,0.1,0,0.1,0.1
		C-407,294.2-407.1,294.3-407.2,294.3z"/>
	<path class="st8" d="M-406.2,295.2c0,0.1-0.1,0.2-0.2,0.1c0,0-0.1,0-0.1-0.1C-406.5,295.1-406.4,295.1-406.2,295.2
		C-406.3,295.1-406.2,295.1-406.2,295.2z"/>
	<path class="st9" d="M-407.9,293.4C-407.9,293.3-407.9,293.3-407.9,293.4c0.1-0.1,0.2-0.2,0.4-0.1c0,0,0,0.1,0,0.1
		C-407.7,293.4-407.8,293.4-407.9,293.4z"/>
	<path class="st10" d="M-405.9,295.2c-0.1,0-0.2,0-0.2-0.1c0-0.1,0-0.1,0.1-0.1c0.1,0,0.2,0,0.2,0.1
		C-405.8,295.2-405.9,295.2-405.9,295.2z"/>
	<path class="st11" d="M-406.2,294.9c0,0.1-0.1,0.1-0.2,0.1c-0.1,0-0.1,0-0.1-0.1c0-0.1,0-0.1,0.1-0.1
		C-406.2,294.8-406.2,294.8-406.2,294.9z"/>
	<path class="st12" d="M-397.7,295.1c0.1,0.1,0.2,0.2,0.1,0.3c0,0-0.1,0-0.1,0C-397.8,295.3-397.7,295.2-397.7,295.1z"/>
	<path class="st13" d="M-406.3,294.6C-406.2,294.6-406.2,294.6-406.3,294.6c0.1,0.1,0.1,0.1,0,0.1
		C-406.3,294.7-406.3,294.7-406.3,294.6C-406.3,294.6-406.3,294.6-406.3,294.6z"/>
	<path class="st14" d="M-410.1,295c0,0.1,0,0.1,0,0.1C-410.2,295.1-410.2,295.1-410.1,295C-410.1,295-410.1,295-410.1,295z"/>
	<path class="st15" d="M-406,294.9C-406,294.9-406,294.9-406,294.9C-406,294.8-406,294.8-406,294.9
		C-405.9,294.8-405.9,294.8-406,294.9C-405.9,294.9-405.9,294.9-406,294.9z"/>
	<path class="st16" d="M-400.7,293.8c0-0.1,0-0.2,0.2-0.2c0.1,0,0.1,0.1,0.1,0.2c0,0.2,0.1,0.3,0.2,0.4c0.2,0.1,0,0.2,0,0.2
		c-0.1,0-0.2,0.1-0.4,0c-0.2,0-0.1-0.1-0.1-0.2C-400.4,294-400.6,293.9-400.7,293.8z"/>
	<path class="st17" d="M-400.6,294.1c-0.1,0.1-0.2,0.1-0.3,0.2c-0.1,0.1-0.2,0-0.1-0.1c0.1-0.2,0.2-0.3,0.4-0.3
		C-400.6,293.9-400.6,294-400.6,294.1z"/>
	<path class="st18" d="M-400.6,294.1c0-0.1,0-0.2,0-0.2c0,0,0,0,0-0.1c0,0,0.1,0.1,0.1,0.1c0.1,0,0.1,0.1,0.1,0.2
		C-400.4,294.2-400.5,294.1-400.6,294.1C-400.6,294.1-400.6,294.1-400.6,294.1z"/>
	<path class="st19" d="M-404.5,294.9c-0.1,0.1-0.1,0.1-0.2,0c0,0,0-0.1,0-0.1C-404.7,294.8-404.6,294.8-404.5,294.9
		C-404.5,294.8-404.5,294.9-404.5,294.9z"/>
	<path class="st20" d="M-404.5,294.9C-404.5,294.9-404.5,294.9-404.5,294.9c0-0.2,0.1-0.2,0.2-0.2
		C-404.3,294.9-404.5,294.8-404.5,294.9z"/>
	<path class="st21" d="M-405,294.9C-405,294.9-405,294.8-405,294.9c0.1-0.1,0.1,0,0.1,0c0,0,0,0.1-0.1,0.1
		C-405,295-405,295-405,294.9z"/>
</g>
</svg>
