<?xml version="1.0" encoding="utf-8"?>
<!-- Generator: Adobe Illustrator 19.0.0, SVG Export Plug-In . SVG Version: 6.00 Build 0)  -->
<svg version="1.1" id="Layer_1" xmlns="http://www.w3.org/2000/svg" xmlns:xlink="http://www.w3.org/1999/xlink" x="0px" y="0px"
	 viewBox="-357 290.2 125.9 16.1" style="enable-background:new -357 290.2 125.9 16.1;" xml:space="preserve">
<style type="text/css">
	.st0{fill:#FFFFFF;stroke:#000000;stroke-miterlimit:10;}
	.st1{fill:#78EFFF;}
	.st2{fill:#007F89;}
	.st3{fill:#418888;}
	.st4{fill:#FEFEFE;}
	.st5{fill:#F9FBFB;}
	.st6{fill:#F2F6F6;}
	.st7{fill:#D3E3E3;}
	.st8{fill:#F4F8F8;}
	.st9{fill:#F8FBFB;}
	.st10{fill:#ECF3F3;}
	.st11{fill:#E1ECEC;}
	.st12{fill:#EFF5F5;}
	.st13{fill:#E7F0F0;}
	.st14{fill:#ECF2F2;}
	.st15{fill:#F0F5F5;}
	.st16{fill:#AFCDCD;}
	.st17{fill:#5B9999;}
	.st18{fill:#F6FAFA;}
	.st19{fill:#448B8B;}
	.st20{fill:#4B8F8F;}
	.st21{fill:#DFEBEB;}
	.st22{fill:#478C8C;}
	.st23{fill:#579696;}
	.st24{fill:#5F9B9B;}
</style>
<path class="st0" d="M-1045.9,827L-1045.9,827L-1045.9,827z"/>
<g>
	<path class="st1" d="M-325.5,304c-0.8,0.3-2.4,0.7-4.1,0.7c-2.2,0-3.8-0.6-4.9-1.6c-1.1-1-1.7-2.6-1.7-4.4c0-4,3-6.3,6.9-6.3
		c1.6,0,2.8,0.3,3.4,0.6l-0.6,2.2c-0.7-0.3-1.5-0.5-2.8-0.5c-2.3,0-4,1.3-4,3.9c0,2.5,1.6,4,3.8,4c0.6,0,1.1-0.1,1.4-0.2v-2.5h-1.9
		v-2.1h4.5V304z"/>
	<path class="st1" d="M-323.4,292.6c0.8-0.1,2-0.3,3.7-0.3c1.7,0,2.9,0.3,3.7,1c0.8,0.6,1.3,1.6,1.3,2.8c0,1.2-0.4,2.2-1.1,2.9
		c-0.9,0.9-2.3,1.3-3.9,1.3c-0.4,0-0.7,0-0.9-0.1v4.3h-2.7V292.6z M-320.7,298.1c0.2,0.1,0.5,0.1,0.9,0.1c1.5,0,2.4-0.7,2.4-2
		c0-1.1-0.8-1.8-2.1-1.8c-0.6,0-0.9,0.1-1.1,0.1V298.1z"/>
	<path class="st2" d="M-300.4,304.2c-0.5,0.3-1.6,0.5-3.1,0.5c-4.2,0-6.4-2.6-6.4-6.1c0-4.1,3-6.4,6.6-6.4c1.4,0,2.5,0.3,3,0.5
		l-0.6,2.2c-0.6-0.2-1.3-0.5-2.3-0.5c-2.2,0-3.9,1.3-3.9,4c0,2.4,1.4,4,3.9,4c0.8,0,1.7-0.2,2.3-0.4L-300.4,304.2z"/>
	<path class="st2" d="M-288,298.3c0,4-2.4,6.4-6,6.4c-3.6,0-5.7-2.7-5.7-6.2c0-3.6,2.3-6.4,5.9-6.4C-290.1,292.2-288,295-288,298.3z
		 M-296.8,298.5c0,2.4,1.1,4.1,3,4.1c1.9,0,2.9-1.8,2.9-4.1c0-2.2-1-4.1-2.9-4.1C-295.7,294.4-296.8,296.1-296.8,298.5z"/>
	<path class="st2" d="M-286.2,304.5v-12.1h3.2l2.5,4.4c0.7,1.3,1.4,2.8,2,4.2h0.1c-0.2-1.6-0.2-3.2-0.2-5.1v-3.5h2.5v12.1h-2.9
		l-2.6-4.7c-0.7-1.3-1.5-2.9-2.1-4.3l-0.1,0c0.1,1.6,0.1,3.3,0.1,5.3v3.7H-286.2z"/>
	<path class="st2" d="M-271.5,294.7h-3.3v-2.3h9.3v2.3h-3.3v9.8h-2.8V294.7z"/>
	<path class="st2" d="M-263.9,292.6c0.9-0.1,2.2-0.3,3.7-0.3c1.8,0,3.1,0.3,3.9,1c0.7,0.6,1.1,1.4,1.1,2.5c0,1.5-1.1,2.6-2.1,3v0.1
		c0.8,0.3,1.3,1.2,1.6,2.3c0.4,1.4,0.8,3,1,3.4h-2.8c-0.2-0.3-0.5-1.3-0.8-2.8c-0.3-1.5-0.8-1.9-2-1.9h-0.8v4.8h-2.7V292.6z
		 M-261.2,297.8h1.1c1.4,0,2.2-0.7,2.2-1.7c0-1.1-0.8-1.7-2-1.7c-0.7,0-1,0.1-1.2,0.1V297.8z"/>
	<path class="st2" d="M-242.2,298.3c0,4-2.4,6.4-6,6.4c-3.6,0-5.7-2.7-5.7-6.2c0-3.6,2.3-6.4,5.9-6.4
		C-244.3,292.2-242.2,295-242.2,298.3z M-251,298.5c0,2.4,1.1,4.1,3,4.1c1.9,0,2.9-1.8,2.9-4.1c0-2.2-1-4.1-2.9-4.1
		C-249.9,294.4-251,296.1-251,298.5z"/>
	<path class="st2" d="M-240.4,292.4h2.8v9.8h4.8v2.3h-7.6V292.4z"/>
</g>
<g>
	<path class="st3" d="M-347.3,306.2c-1.4,0-2.7-0.3-4-1c-0.9-0.5-1.7-1.1-2.4-1.9c-0.5-0.6-0.9-1.3-1.3-2c-0.9-1.9-0.9-3.9-0.2-5.9
		c0.3-0.8,0.7-1.5,1.2-2.1c0.7-0.8,1.4-1.5,2.3-2c1.9-1.1,3.9-1.4,6-1c1.4,0.3,2.6,0.8,3.7,1.7c0.4,0.3,0.8,0.7,1.1,1.1
		c0.6,0.6,1,1.4,1.3,2.2c0.8,1.8,0.7,3.6,0.1,5.4c-0.3,0.8-0.6,1.5-1.2,2.2c-1.4,1.7-3.1,2.8-5.2,3.2
		C-346.2,306.2-346.7,306.3-347.3,306.2z"/>
	<path class="st4" d="M-351,292.4c-0.2,0-0.4-0.2-0.7-0.1c0.1-0.2,0.3-0.2,0.5-0.3c1.3-0.8,2.8-1.2,4.3-1.1c1.4,0.1,2.7,0.4,3.8,1.2
		c0.3,0.2,0.5,0.3,0.8,0.5c0.2,0.2,0.2,0.2-0.1,0.3c-0.1,0-0.2,0.1-0.3,0.2c-0.1,0.1-0.1,0.2,0.1,0.3c0.1,0,0.1,0.1,0.1,0.1
		c0,0.1,0.1,0.1,0.2,0.1c0,0,0.1-0.1,0.2,0c0,0.1,0.1,0.2,0,0.2c0,0.1-0.1,0-0.2,0c-0.2,0-0.4,0-0.6,0.2c-0.1,0.1-0.2,0.2-0.4,0.2
		c-0.2,0-0.3,0.2-0.1,0.4c0.1,0.1,0,0.1,0,0.2c0,0.1-0.1,0.1-0.1,0c-0.1,0-0.3-0.1-0.4,0c-0.2,0-0.3,0.1-0.3,0.3
		c0,0.2,0,0.4,0.3,0.4c0.3,0,0.5,0.1,0.7-0.3c0.1-0.2,0.2-0.4,0.6-0.4c0.1,0,0.1-0.1,0.2-0.1c0.2,0.3,0.4,0.3,0.7,0.5
		c-0.1,0.1-0.2,0-0.3,0.1c0.1,0.2,0.2,0.1,0.3,0.1c0.2,0,0.1-0.2,0.2-0.3c0-0.1-0.1-0.2-0.2-0.2c-0.2-0.1-0.3-0.1-0.3-0.3
		c0,0,0-0.1,0-0.1c0.2,0,0.3,0,0.4,0.1c0.1,0.1,0.2,0.2,0.2,0.4c0,0.2,0.2,0.2,0.3,0.3c0.1-0.1,0.1-0.2,0.1-0.3
		c0-0.1,0.1-0.1,0.2-0.1c0.1,0,0.1,0.1,0.1,0.2c0,0.3,0.2,0.3,0.4,0.3c0.2,0,0.4,0.4,0.4,0.6c0,0,0,0.1-0.1,0.1
		c-0.3,0-0.6,0.1-0.8-0.1c-0.1-0.1-0.3-0.1-0.4-0.1c0,0-0.1,0-0.1,0.1c0,0.2-0.1,0.1-0.2,0.1c-0.2-0.1-0.3-0.1-0.5-0.1
		c-0.2,0-0.3-0.1-0.2-0.3c0-0.1,0-0.2-0.2-0.2c-0.3,0.1-0.6,0-0.9,0.2c-0.1,0.1-0.2,0-0.3,0c-0.2-0.1-0.4,0.1-0.6,0.2
		c-0.1,0-0.1,0.1-0.1,0.2c0,0.2-0.1,0.3-0.2,0.4c-0.2,0.1-0.3,0.2-0.5,0.3c-0.2,0.1-0.1,0.3,0,0.3c0.1,0.1,0.1,0.2,0.1,0.2
		c-0.2,0.4-0.2,0.6,0.1,1c0.1,0.1,0.2,0.2,0.3,0.4c0.1,0.1,0.2,0.2,0.4,0.1c0.3-0.1,0.6,0,0.9-0.2c0.1-0.1,0.3-0.1,0.4,0.1
		c0.1,0.1,0.1,0.1,0.2,0.1c0.2,0,0.4,0.1,0.3,0.3c-0.1,0.3,0.1,0.6,0.3,0.8c0.2,0.3,0.2,0.5,0,0.7c-0.1,0.2-0.1,0.4,0.1,0.5
		c0.1,0.1,0.1,0.3,0.1,0.4c0,0.2,0,0.3,0.2,0.5c0.1,0.1,0.2,0.3,0.2,0.5c0,0.1,0,0.3,0.3,0.2c-0.5,0.5-1,1-1.6,1.4
		c-0.7,0.4-1.4,0.8-2.2,1c-1.7,0.5-3.3,0.4-4.9-0.2c-0.9-0.3-1.8-0.8-2.5-1.5c-0.4-0.4-0.8-0.8-1.1-1.3c-0.8-1.1-1.2-2.4-1.3-3.8
		c-0.1-1,0.1-2,0.5-3c0,0,0-0.1,0.1-0.1c0,0.2,0,0.4,0.3,0.4c0.1,0,0.1,0.2,0.1,0.3c0,0.3,0.1,0.5,0.3,0.8c0.1,0.1,0.2,0.2,0.3,0.1
		c0.1-0.1,0-0.2,0-0.3c-0.1-0.2-0.2-0.4-0.2-0.6c0,0,0-0.1,0.1-0.1c0.1,0,0.1,0,0.1,0.1c0,0.3,0.2,0.6,0.4,0.8c0,0,0,0.1,0,0.1
		c0,0.4,0.1,0.6,0.4,0.6c0.2,0,0.3,0.1,0.5,0c0,0,0.2,0,0.2,0.1c0,0.1,0.1,0.1,0.2,0.1c0.3,0,0.5,0.2,0.7,0.4
		c0.1,0.2,0.3,0.2,0.5,0.2c0.1,0,0.2,0,0.2,0.1c0,0.1,0.2,0.3,0,0.4c-0.4,0.2-0.3,0.6-0.3,0.8c0,0,0,0.1,0.1,0.1
		c0.2,0.3,0.5,0.5,0.5,0.8c0,0.1,0.1,0.1,0.1,0.1c0.1,0,0.2,0.1,0.2,0.1c0.3,0.1,0.4,0.3,0.3,0.6c0,0.2,0,0.4,0,0.6
		c0,0.1,0,0.3,0.1,0.4c0.1,0.1,0,0.2,0,0.3c-0.1,0.2,0,0.4,0.1,0.5c0.1,0.1,0.1,0.1,0.1,0.3c-0.1,0.5,0.1,0.8,0.5,1.1
		c0.2,0.2,0.4,0.3,0.6,0.3c0.1,0,0.1,0,0.2-0.1c0-0.1,0-0.1-0.1-0.1c-0.2-0.1-0.3-0.3-0.2-0.5c0-0.1,0-0.2-0.1-0.2
		c-0.2,0-0.2-0.1-0.1-0.2c0.1-0.1,0.2-0.2,0-0.2c0,0-0.1,0-0.1-0.1c0-0.1,0.1-0.1,0.1-0.1c0.2,0,0.3-0.1,0.4-0.1
		c0.4-0.2,0.6-0.6,0.8-1c0.1-0.1,0-0.2,0-0.3c-0.1-0.3,0-0.4,0.3-0.4c0.4,0,0.5-0.1,0.6-0.5c0-0.4,0.1-0.7,0.3-1
		c0.1-0.1,0.2-0.3-0.1-0.4c0,0-0.1,0-0.1-0.1c-0.1-0.3-0.3-0.3-0.5-0.3c-0.1,0-0.3,0-0.4,0c-0.2-0.1-0.5-0.1-0.4-0.5
		c0-0.2-0.1-0.4-0.4-0.3c-0.2,0-0.3,0-0.4-0.2c-0.1-0.2-0.2-0.4-0.5-0.2c-0.1,0.1-0.4,0.1-0.5-0.1c-0.1-0.2-0.5-0.2-0.6,0
		c-0.2,0.3-0.4,0.3-0.8,0.2c-0.1,0-0.1,0-0.1-0.1c0,0,0-0.1,0-0.1c0-0.4,0-0.4-0.4-0.6c0,0,0,0,0,0c0-0.1,0.2-0.3,0.1-0.4
		c-0.1-0.1-0.3,0.1-0.4,0.1c-0.1,0.1-0.2,0.2-0.4,0.1c-0.2,0-0.3-0.2-0.3-0.3c0-0.4,0.4-0.8,0.8-0.8c0.2,0,0.3,0,0.5,0
		c0.2,0,0.3-0.1,0.3,0.2c0,0.1,0.2,0.1,0.3,0.2c0,0,0,0,0,0c-0.1-0.3,0.1-0.5,0.4-0.7c0.2-0.1,0.3-0.2,0.4-0.4
		c0.1-0.2,0.4-0.5,0.7-0.6c0.2,0,0.3-0.2,0.4-0.3c0.1-0.1,0.2-0.2,0.4-0.1c0.1,0,0.1-0.1,0.1-0.1c0-0.1,0-0.1,0-0.1
		c-0.1,0-0.2,0-0.2-0.1c0,0,0-0.1,0.1-0.1c0.1,0,0.2,0,0.2,0c0.1,0.2,0.3,0.1,0.5,0c0,0,0.1-0.1,0.1,0c0.1,0,0,0.1,0,0.1
		c-0.1,0.2,0,0.2,0.1,0.2c0.1,0,0.1,0,0.2,0.1c0.1,0,0.1,0.1,0.1,0c0-0.1,0-0.1,0-0.2c0,0-0.1,0-0.1-0.1c-0.1,0-0.1,0-0.1-0.1
		c0-0.1,0.1-0.1,0.1-0.1c0.2-0.1,0.2-0.3,0.1-0.3c-0.3-0.1-0.3-0.3-0.2-0.6c-0.1,0.1-0.3,0.1-0.4,0.2c-0.1,0-0.2,0-0.2-0.1
		c0-0.3-0.3-0.2-0.4-0.3c-0.1-0.1-0.3,0-0.3,0.2c0,0.1,0,0.1,0,0.2c0,0.2-0.1,0.3-0.2,0.3c-0.2,0-0.3,0.1-0.3,0.2
		c0,0.1-0.1,0.2-0.2,0.1c-0.1,0-0.1-0.1-0.1-0.2c0-0.2-0.1-0.2-0.2-0.2c-0.1,0-0.2,0-0.3-0.1c-0.1-0.1-0.1-0.3,0-0.4
		c0.2-0.1,0.4-0.3,0.7-0.3c0.1,0,0.2-0.1,0.2,0.1c0,0.1,0.1,0.1,0.2,0.1c0.1-0.1,0.3,0,0.2-0.2c0,0,0-0.1,0-0.1c0,0,0.1,0,0.1,0
		c0.3-0.1,0.5-0.4,0.9-0.2c0.1,0,0.1,0.1,0.2,0.1c-0.2,0.1-0.4,0.1-0.5,0.3c0.2,0.1,0.4,0.2,0.6,0.1c0.2-0.1,0.4-0.2,0.6-0.3
		c0,0,0-0.1,0-0.1c-0.2,0-0.1-0.4-0.4-0.4c-0.3-0.1-0.6-0.3-1-0.2c-0.2,0.1-0.4,0.1-0.4,0.4c0,0,0,0.1,0,0.1c-0.1,0-0.2,0-0.2-0.1
		c-0.1,0-0.1-0.1,0-0.2c0.1-0.1,0.1-0.1,0.2-0.2c-0.2-0.1-0.3-0.1-0.5-0.1c-0.1,0-0.2,0-0.2,0.1c-0.1,0.1,0.1,0.1,0.1,0.2
		c0.1,0.1,0,0.2,0,0.2c-0.2,0-0.4,0.2-0.6,0.2c-0.1,0-0.1,0-0.2-0.1c0-0.1,0.1-0.1,0.1-0.1c0.2,0,0.3-0.1,0.4-0.2c0,0,0.1-0.1,0-0.1
		c0,0-0.1,0-0.1,0c-0.3,0.2-0.4,0.2-0.7-0.1c-0.2-0.1-0.4-0.1-0.6,0c-0.1,0-0.2,0.1-0.3,0.2c0.1,0.1,0.3-0.1,0.3,0.2
		C-350.9,292.4-351,292.4-351,292.4z"/>
	<path class="st5" d="M-341.6,293.2c0.1,0,0.2,0.1,0.2,0.2c0,0.1,0.1,0.1,0.1,0.2c-0.1,0.1-0.1,0.2-0.2,0.1c0,0-0.1,0-0.1,0
		c-0.1,0-0.3,0.1-0.3-0.1c0-0.1,0.1-0.1,0.2-0.2C-341.6,293.5-341.7,293.4-341.6,293.2z"/>
	<path class="st6" d="M-350.3,294.6c-0.1,0-0.3,0.1-0.3-0.1c0-0.1,0.2-0.1,0.3-0.1c0,0,0.1,0,0.1,0c0.1,0,0.2,0.1,0.2,0.2
		c0,0.1-0.1,0.1-0.2,0.1C-350.2,294.6-350.3,294.6-350.3,294.6z"/>
	<path class="st7" d="M-351,292.4c0.1,0,0.1,0,0.2-0.1c0.1,0.1,0.2,0,0.3,0.1c0.1,0,0.1,0.1,0.1,0.1c0,0.1-0.1,0-0.1,0
		C-350.7,292.6-350.9,292.5-351,292.4z"/>
	<path class="st8" d="M-350.3,294.6c0,0.1-0.1,0.2-0.2,0.3c0,0-0.1,0.1-0.1,0c-0.1,0-0.1-0.1,0-0.1
		C-350.6,294.7-350.5,294.6-350.3,294.6z"/>
	<path class="st9" d="M-351.6,292.8c-0.1,0-0.2,0-0.2-0.1c0-0.2,0.2-0.1,0.3-0.1c0.1,0,0.2,0,0.1,0.1
		C-351.3,292.8-351.5,292.8-351.6,292.8z"/>
	<path class="st10" d="M-350.9,294.1c-0.1,0-0.1-0.1-0.1-0.2c0-0.1,0.1-0.1,0.2-0.1c0.1,0,0.2,0,0.1,0.1
		C-350.7,294-350.8,294.1-350.9,294.1z"/>
	<path class="st11" d="M-349.8,295c0,0.1-0.1,0.2-0.2,0.2c-0.1,0-0.1,0-0.1-0.1C-350.2,295-350,295-349.8,295
		C-349.9,294.9-349.8,294.9-349.8,295z"/>
	<path class="st12" d="M-351.8,293.1C-351.8,293.1-351.8,293.1-351.8,293.1c0.1-0.1,0.3-0.2,0.4-0.1c0,0,0,0.1,0,0.1
		C-351.5,293.2-351.6,293.1-351.8,293.1z"/>
	<path class="st13" d="M-349.6,295c-0.1,0-0.2,0-0.2-0.1c0-0.1,0-0.1,0.1-0.1c0.1,0,0.2,0,0.2,0.1C-349.4,295-349.5,295-349.6,295z"
		/>
	<path class="st14" d="M-349.8,294.7c0,0.1-0.1,0.1-0.2,0.1c-0.1,0-0.1,0-0.1-0.1c0-0.1,0-0.1,0.1-0.1
		C-349.9,294.6-349.8,294.6-349.8,294.7z"/>
	<path class="st15" d="M-340.4,294.9c0.1,0.1,0.2,0.2,0.1,0.3c0,0-0.1,0-0.1,0C-340.5,295.2-340.4,295.1-340.4,294.9z"/>
	<path class="st16" d="M-349.9,294.4C-349.8,294.4-349.8,294.5-349.9,294.4c0.1,0.1,0.1,0.1,0,0.1
		C-349.9,294.6-349.9,294.5-349.9,294.4C-349.9,294.5-349.9,294.4-349.9,294.4z"/>
	<path class="st17" d="M-354.1,294.8c0,0.1,0,0.2-0.1,0.1C-354.3,295-354.2,294.9-354.1,294.8C-354.2,294.9-354.2,294.9-354.1,294.8
		z"/>
	<path class="st18" d="M-349.6,294.7C-349.6,294.7-349.6,294.7-349.6,294.7C-349.6,294.6-349.6,294.6-349.6,294.7
		C-349.6,294.6-349.5,294.6-349.6,294.7C-349.5,294.7-349.5,294.7-349.6,294.7z"/>
	<path class="st19" d="M-343.7,293.6c0-0.2,0-0.2,0.2-0.3c0.2,0,0.1,0.1,0.2,0.2c0,0.2,0.1,0.3,0.3,0.4c0.2,0.1,0,0.2,0,0.2
		c-0.1,0-0.3,0.1-0.4,0.1c-0.2,0-0.1-0.2-0.1-0.2C-343.5,293.8-343.7,293.7-343.7,293.6z"/>
	<path class="st20" d="M-343.7,293.9c-0.1,0.1-0.2,0.1-0.3,0.2c-0.1,0.1-0.2,0-0.2-0.1c0.1-0.2,0.2-0.3,0.4-0.3
		C-343.6,293.7-343.6,293.8-343.7,293.9z"/>
	<path class="st21" d="M-343.7,293.9c0-0.1,0-0.2,0-0.2c0,0,0,0,0-0.1c0,0,0.1,0.1,0.1,0.1c0.1,0,0.2,0.1,0.2,0.2
		C-343.4,293.9-343.6,293.9-343.7,293.9C-343.6,293.9-343.6,293.9-343.7,293.9z"/>
	<path class="st22" d="M-347.9,294.8c-0.1,0.1-0.1,0.1-0.2,0c0,0,0-0.1,0-0.1c0-0.1,0.1,0,0.2,0
		C-347.9,294.7-347.9,294.7-347.9,294.8z"/>
	<path class="st23" d="M-347.9,294.8c0,0,0-0.1-0.1-0.1c0.1-0.1,0.2-0.1,0.3-0.1C-347.7,294.7-347.9,294.6-347.9,294.8z"/>
	<path class="st24" d="M-348.5,294.7C-348.5,294.7-348.5,294.7-348.5,294.7c0.1-0.1,0.2,0,0.1,0c0,0,0,0.1-0.1,0.1
		C-348.5,294.9-348.5,294.8-348.5,294.7z"/>
</g>
</svg>
